<?xml version="1.0" encoding="UTF-8"?><svg id="Layer_1" xmlns="http://www.w3.org/2000/svg" viewBox="0 0 377.49 185.22"><defs><style>.cls-1{fill:#fff;stroke-width:0px;}</style></defs><path class="cls-1" d="M116.84,47.98l-43,28.89c-1.72,1.16-3.03,2.83-3.74,4.77l-15.38,42.26c-.64,1.75.66,3.61,2.53,3.61h33.93c1.13,0,2.14-.71,2.53-1.77l27.16-74.62c.89-2.45-1.87-4.61-4.03-3.15Z"/><path class="cls-1" d="M46.14,95.49L0,127.52h37.77c1.13,0,2.14-.71,2.53-1.77l9.87-27.11c.89-2.45-1.87-4.61-4.03-3.15Z"/><path class="cls-1" d="M266.82,57.71h-33.93c-1.13,0-2.14.71-2.53,1.77l-7.73,21.23h-59.11L191.58,3.62c.89-2.45-1.87-4.61-4.03-3.15l-43,28.89c-1.72,1.16-3.03,2.83-3.74,4.77l-32.67,89.77c-.64,1.75.66,3.61,2.53,3.61h33.93c1.13,0,2.14-.71,2.53-1.77l10.06-27.64h20.83l-15.63,42.94,20.5-13.92c1.7-1.15,2.99-2.81,3.69-4.74l8.84-24.28h20.89l-30.39,83.49c-.89,2.45,1.87,4.61,4.03,3.15l43-28.89c1.72-1.16,3.03-2.83,3.74-4.77l32.67-89.77c.64-1.75-.66-3.61-2.53-3.61Z"/><path class="cls-1" d="M320.23,57.71h-33.93c-1.13,0-2.14.71-2.53,1.77l-27.16,74.62c-.89,2.45,1.87,4.61,4.03,3.15l43-28.89c1.72-1.16,3.03-2.83,3.74-4.77l15.38-42.26c.64-1.75-.66-3.61-2.53-3.61Z"/><path class="cls-1" d="M339.71,57.71c-1.13,0-2.14.71-2.53,1.77l-9.87,27.11c-.89,2.45,1.87,4.61,4.03,3.15l46.14-32.03h-37.77Z"/></svg>